<?xml version="1.0" encoding="utf-8"?>
<!-- Generator: Adobe Illustrator 16.0.0, SVG Export Plug-In . SVG Version: 6.00 Build 0)  -->
<!DOCTYPE svg PUBLIC "-//W3C//DTD SVG 1.1//EN" "http://www.w3.org/Graphics/SVG/1.1/DTD/svg11.dtd">
<svg version="1.1" id="Layer_1" xmlns="http://www.w3.org/2000/svg" xmlns:xlink="http://www.w3.org/1999/xlink" x="0px" y="0px"
	 width="226.771px" height="143px" viewBox="0 0 226.771 143" enable-background="new 0 0 226.771 143" xml:space="preserve">
<g>
	<path d="M20.235,134.446c-1.075,0-2.051-0.176-2.934-0.529c-0.882-0.353-1.639-0.868-2.271-1.544s-1.121-1.511-1.467-2.503
		s-0.519-2.128-0.519-3.407c0-1.278,0.195-2.415,0.586-3.407c0.389-0.992,0.914-1.826,1.577-2.503
		c0.661-0.676,1.434-1.19,2.315-1.543c0.883-0.354,1.824-0.529,2.823-0.529c0.631,0,1.202,0.044,1.708,0.132
		c0.508,0.089,0.948,0.19,1.324,0.309c0.374,0.117,0.679,0.235,0.915,0.353c0.235,0.118,0.397,0.207,0.486,0.266l-0.618,1.764
		c-0.132-0.088-0.324-0.184-0.574-0.287c-0.25-0.103-0.533-0.205-0.85-0.309c-0.315-0.103-0.661-0.188-1.036-0.254
		c-0.374-0.065-0.753-0.099-1.135-0.099c-0.809,0-1.537,0.14-2.183,0.419c-0.647,0.279-1.2,0.684-1.655,1.213
		s-0.804,1.172-1.046,1.93c-0.244,0.757-0.364,1.606-0.364,2.547c0,0.912,0.106,1.742,0.319,2.493
		c0.213,0.749,0.534,1.392,0.959,1.929c0.427,0.537,0.959,0.951,1.599,1.246c0.64,0.294,1.387,0.44,2.238,0.44
		c0.986,0,1.802-0.103,2.448-0.309c0.647-0.205,1.133-0.39,1.457-0.551l0.551,1.765c-0.104,0.073-0.288,0.165-0.551,0.275
		c-0.265,0.109-0.596,0.217-0.993,0.32c-0.396,0.102-0.861,0.19-1.39,0.264S20.852,134.446,20.235,134.446L20.235,134.446z
		 M26.478,126.463c0-1.309,0.196-2.462,0.586-3.462c0.389-0.999,0.918-1.834,1.587-2.503c0.669-0.669,1.449-1.173,2.338-1.511
		c0.89-0.338,1.834-0.507,2.833-0.507c0.985,0,1.916,0.169,2.79,0.507c0.875,0.338,1.643,0.842,2.305,1.511
		c0.661,0.669,1.187,1.504,1.577,2.503c0.389,1,0.584,2.153,0.584,3.462c0,1.308-0.195,2.463-0.584,3.463
		c-0.391,0.999-0.916,1.833-1.577,2.502c-0.662,0.67-1.43,1.174-2.305,1.511c-0.875,0.339-1.805,0.508-2.79,0.508
		c-1,0-1.944-0.169-2.833-0.508c-0.889-0.337-1.668-0.841-2.338-1.511c-0.669-0.669-1.198-1.503-1.587-2.502
		C26.673,128.926,26.478,127.771,26.478,126.463L26.478,126.463z M28.728,126.463c0,0.926,0.118,1.769,0.353,2.525
		c0.235,0.757,0.569,1.4,1.004,1.93c0.433,0.529,0.963,0.937,1.588,1.224c0.625,0.286,1.327,0.43,2.106,0.43s1.477-0.144,2.095-0.43
		c0.618-0.287,1.143-0.694,1.577-1.224c0.434-0.529,0.768-1.173,1.003-1.93c0.235-0.757,0.354-1.6,0.354-2.525
		c0-0.927-0.119-1.768-0.354-2.525c-0.235-0.756-0.569-1.4-1.003-1.929c-0.434-0.529-0.959-0.938-1.577-1.224
		c-0.618-0.287-1.315-0.431-2.095-0.431s-1.481,0.144-2.106,0.431c-0.625,0.285-1.155,0.694-1.588,1.224
		c-0.435,0.528-0.769,1.173-1.004,1.929C28.846,124.695,28.728,125.536,28.728,126.463L28.728,126.463z M50.872,131.998
		c-0.147-0.353-0.341-0.802-0.584-1.345c-0.243-0.544-0.504-1.132-0.783-1.765c-0.279-0.632-0.577-1.283-0.893-1.951
		c-0.316-0.669-0.614-1.302-0.893-1.896c-0.28-0.596-0.541-1.129-0.784-1.599c-0.242-0.471-0.438-0.832-0.584-1.082
		c-0.162,1.735-0.294,3.613-0.397,5.636c-0.102,2.021-0.19,4.062-0.264,6.119h-2.096c0.06-1.323,0.125-2.657,0.199-4.003
		c0.074-1.345,0.158-2.668,0.253-3.969c0.097-1.302,0.199-2.57,0.309-3.805s0.232-2.403,0.364-3.507h1.875
		c0.397,0.648,0.823,1.412,1.279,2.294c0.455,0.883,0.911,1.805,1.367,2.768c0.457,0.964,0.897,1.927,1.323,2.89
		c0.427,0.963,0.816,1.841,1.17,2.635c0.353-0.794,0.743-1.672,1.168-2.635c0.427-0.963,0.868-1.926,1.323-2.89
		c0.456-0.963,0.912-1.885,1.367-2.768c0.456-0.882,0.883-1.646,1.28-2.294h1.874c0.5,4.926,0.875,10.021,1.125,15.283h-2.095
		c-0.074-2.058-0.162-4.099-0.265-6.119c-0.104-2.022-0.235-3.9-0.397-5.636c-0.147,0.25-0.342,0.611-0.584,1.082
		c-0.242,0.47-0.503,1.003-0.783,1.599c-0.28,0.595-0.577,1.228-0.893,1.896c-0.317,0.668-0.614,1.319-0.894,1.951
		c-0.279,0.633-0.539,1.221-0.783,1.765c-0.242,0.543-0.437,0.992-0.584,1.345H50.872L50.872,131.998z M67.041,118.678
		c2.146,0,3.797,0.409,4.951,1.225c1.154,0.816,1.731,2.032,1.731,3.649c0,0.883-0.158,1.636-0.474,2.262
		c-0.315,0.624-0.771,1.131-1.367,1.521c-0.596,0.39-1.32,0.672-2.173,0.849c-0.853,0.178-1.815,0.266-2.889,0.266h-1.699v5.667
		h-2.139v-15.062c0.604-0.146,1.276-0.245,2.019-0.297C65.744,118.704,66.423,118.678,67.041,118.678L67.041,118.678z
		 M67.217,120.553c-0.911,0-1.61,0.021-2.096,0.065v6h1.611c0.735,0,1.396-0.049,1.984-0.145c0.589-0.095,1.085-0.257,1.489-0.485
		c0.405-0.227,0.717-0.539,0.938-0.937c0.22-0.396,0.331-0.904,0.331-1.521c0-0.589-0.113-1.073-0.342-1.455
		c-0.227-0.383-0.536-0.688-0.926-0.916c-0.389-0.228-0.841-0.386-1.355-0.475C68.334,120.597,67.79,120.553,67.217,120.553
		L67.217,120.553z M85.349,132.263v1.853h-9.196v-15.283h2.139v13.431H85.349L85.349,132.263z M87.36,134.115v-15.283h9.328v1.831
		h-7.189v4.543h6.396v1.787h-6.396v5.292h7.742v1.83H87.36L87.36,134.115z M108.888,134.115c-0.221-0.44-0.486-0.93-0.794-1.467
		c-0.309-0.536-0.646-1.095-1.015-1.676c-0.367-0.58-0.749-1.161-1.146-1.742c-0.397-0.58-0.779-1.128-1.146-1.643
		c-0.367,0.515-0.75,1.062-1.146,1.643c-0.397,0.581-0.776,1.162-1.136,1.742c-0.36,0.581-0.698,1.14-1.015,1.676
		c-0.315,0.537-0.584,1.026-0.805,1.467h-2.359c0.661-1.294,1.43-2.609,2.305-3.947s1.804-2.713,2.79-4.124l-4.896-7.212h2.47
		l3.771,5.689l3.727-5.689h2.448l-4.808,7.123c1,1.427,1.941,2.816,2.823,4.169c0.881,1.353,1.661,2.683,2.336,3.991H108.888
		L108.888,134.115z M113.39,118.832h2.14v15.283h-2.14V118.832L113.39,118.832z M129.294,118.832v1.853h-4.807v13.431h-2.139
		v-13.431h-4.809v-1.853H129.294L129.294,118.832z M134.944,134.115v-6.131c-1.016-1.572-1.971-3.124-2.867-4.652
		c-0.896-1.529-1.742-3.029-2.537-4.5h2.516c0.559,1.206,1.184,2.431,1.873,3.672c0.691,1.243,1.404,2.438,2.141,3.584
		c0.721-1.146,1.426-2.341,2.117-3.584c0.691-1.241,1.322-2.466,1.896-3.672h2.381c-0.793,1.471-1.639,2.967-2.535,4.488
		c-0.898,1.521-1.846,3.062-2.846,4.62v6.175H134.944L134.944,134.115z M158.677,126.596h2.141v7.145
		c-0.176,0.06-0.43,0.125-0.762,0.198c-0.33,0.073-0.713,0.146-1.146,0.221c-0.434,0.073-0.908,0.137-1.422,0.188
		c-0.516,0.053-1.037,0.077-1.566,0.077c-1.074,0-2.051-0.177-2.934-0.529s-1.639-0.867-2.27-1.543
		c-0.633-0.676-1.123-1.507-1.469-2.492c-0.344-0.985-0.518-2.117-0.518-3.396c0-1.278,0.195-2.415,0.586-3.407
		c0.389-0.992,0.914-1.826,1.576-2.503c0.66-0.676,1.438-1.19,2.326-1.543c0.889-0.354,1.842-0.529,2.855-0.529
		c0.691,0,1.305,0.044,1.842,0.132c0.537,0.089,0.996,0.19,1.377,0.309c0.385,0.117,0.695,0.235,0.939,0.353
		c0.24,0.118,0.408,0.207,0.494,0.266l-0.682,1.785c-0.428-0.278-0.994-0.511-1.699-0.694s-1.426-0.275-2.16-0.275
		c-0.779,0-1.49,0.14-2.129,0.419s-1.184,0.684-1.633,1.213c-0.447,0.529-0.797,1.172-1.047,1.93
		c-0.25,0.757-0.375,1.606-0.375,2.547c0,0.912,0.105,1.742,0.32,2.493c0.213,0.749,0.537,1.392,0.971,1.929
		s0.969,0.951,1.609,1.246c0.641,0.294,1.393,0.44,2.26,0.44c0.619,0,1.145-0.033,1.578-0.1c0.434-0.065,0.746-0.129,0.936-0.187
		V126.596L158.677,126.596z M171.405,127.72c0.234,0.295,0.533,0.681,0.895,1.158c0.359,0.479,0.73,1.007,1.113,1.588
		c0.381,0.58,0.76,1.187,1.135,1.819c0.375,0.632,0.695,1.243,0.959,1.83h-2.336c-0.295-0.559-0.615-1.125-0.961-1.698
		c-0.344-0.572-0.695-1.12-1.047-1.643c-0.354-0.522-0.703-1.011-1.049-1.467c-0.346-0.455-0.656-0.853-0.936-1.19
		c-0.191,0.014-0.387,0.022-0.586,0.022c-0.197,0-0.4,0-0.605,0h-1.92v5.976h-2.139v-15.062c0.604-0.146,1.275-0.245,2.02-0.297
		c0.742-0.052,1.422-0.078,2.039-0.078c2.146,0,3.781,0.405,4.906,1.213c1.125,0.81,1.688,2.015,1.688,3.618
		c0,1.013-0.268,1.881-0.805,2.602S172.45,127.367,171.405,127.72L171.405,127.72z M168.163,120.553
		c-0.91,0-1.609,0.021-2.096,0.065v5.757h1.523c0.734,0,1.396-0.036,1.984-0.111c0.588-0.073,1.084-0.212,1.488-0.419
		c0.404-0.205,0.717-0.495,0.938-0.871c0.221-0.374,0.33-0.871,0.33-1.488c0-0.572-0.109-1.051-0.33-1.434
		c-0.221-0.382-0.518-0.683-0.893-0.902c-0.375-0.222-0.816-0.376-1.324-0.465C169.276,120.597,168.737,120.553,168.163,120.553
		L168.163,120.553z M176.944,126.463c0-1.309,0.195-2.462,0.584-3.462c0.391-0.999,0.92-1.834,1.588-2.503
		c0.67-0.669,1.449-1.173,2.338-1.511s1.834-0.507,2.834-0.507c0.984,0,1.916,0.169,2.789,0.507
		c0.875,0.338,1.643,0.842,2.305,1.511s1.188,1.504,1.578,2.503c0.389,1,0.584,2.153,0.584,3.462c0,1.308-0.195,2.463-0.584,3.463
		c-0.391,0.999-0.916,1.833-1.578,2.502c-0.662,0.67-1.43,1.174-2.305,1.511c-0.873,0.339-1.805,0.508-2.789,0.508
		c-1,0-1.945-0.169-2.834-0.508c-0.889-0.337-1.668-0.841-2.338-1.511c-0.668-0.669-1.197-1.503-1.588-2.502
		C177.14,128.926,176.944,127.771,176.944,126.463L176.944,126.463z M179.194,126.463c0,0.926,0.117,1.769,0.352,2.525
		c0.236,0.757,0.57,1.4,1.004,1.93s0.963,0.937,1.588,1.224c0.625,0.286,1.328,0.43,2.107,0.43s1.477-0.144,2.094-0.43
		c0.617-0.287,1.143-0.694,1.576-1.224c0.436-0.529,0.768-1.173,1.004-1.93c0.234-0.757,0.354-1.6,0.354-2.525
		c0-0.927-0.119-1.768-0.354-2.525c-0.236-0.756-0.568-1.4-1.004-1.929c-0.434-0.529-0.959-0.938-1.576-1.224
		c-0.617-0.287-1.314-0.431-2.094-0.431s-1.482,0.144-2.107,0.431c-0.625,0.285-1.154,0.694-1.588,1.224
		c-0.434,0.528-0.768,1.173-1.004,1.929C179.312,124.695,179.194,125.536,179.194,126.463L179.194,126.463z M200.169,134.446
		c-0.998,0-1.867-0.154-2.602-0.463s-1.338-0.732-1.809-1.269s-0.818-1.173-1.047-1.907c-0.229-0.735-0.342-1.529-0.342-2.382
		v-9.594h2.139v9.351c0,1.529,0.338,2.64,1.014,3.331c0.676,0.69,1.559,1.036,2.646,1.036c0.545,0,1.041-0.085,1.49-0.253
		c0.447-0.171,0.834-0.431,1.156-0.783c0.324-0.354,0.574-0.806,0.75-1.356c0.178-0.551,0.266-1.21,0.266-1.975v-9.351h2.139v9.594
		c0,0.853-0.115,1.646-0.342,2.382c-0.229,0.734-0.58,1.371-1.059,1.907s-1.08,0.96-1.809,1.269
		C202.034,134.292,201.169,134.446,200.169,134.446L200.169,134.446z M213.472,118.678c2.146,0,3.797,0.409,4.951,1.225
		c1.152,0.816,1.73,2.032,1.73,3.649c0,0.883-0.158,1.636-0.475,2.262c-0.314,0.624-0.77,1.131-1.367,1.521
		c-0.596,0.39-1.318,0.672-2.172,0.849c-0.854,0.178-1.816,0.266-2.889,0.266h-1.699v5.667h-2.139v-15.062
		c0.604-0.146,1.277-0.245,2.02-0.297S212.854,118.678,213.472,118.678L213.472,118.678z M213.647,120.553
		c-0.91,0-1.609,0.021-2.096,0.065v6h1.611c0.734,0,1.396-0.049,1.984-0.145c0.588-0.095,1.084-0.257,1.488-0.485
		c0.404-0.227,0.717-0.539,0.938-0.937c0.221-0.396,0.33-0.904,0.33-1.521c0-0.589-0.113-1.073-0.342-1.455
		c-0.227-0.383-0.535-0.688-0.926-0.916c-0.389-0.228-0.842-0.386-1.355-0.475C214.765,120.597,214.222,120.553,213.647,120.553
		L213.647,120.553z"/>
	<path d="M24.816,110.658c-0.25-0.661-0.485-1.312-0.706-1.952c-0.221-0.64-0.449-1.29-0.684-1.952h-6.924l-1.39,3.904h-2.227
		c0.587-1.617,1.139-3.114,1.654-4.488c0.515-1.375,1.018-2.68,1.511-3.915c0.492-1.234,0.981-2.414,1.466-3.539
		s0.993-2.238,1.522-3.341h1.962c0.529,1.103,1.037,2.216,1.522,3.341c0.484,1.125,0.973,2.305,1.466,3.539
		c0.493,1.235,0.996,2.54,1.512,3.915c0.514,1.374,1.064,2.871,1.653,4.488H24.816L24.816,110.658z M22.809,104.99
		c-0.47-1.279-0.937-2.518-1.4-3.716c-0.463-1.198-0.945-2.349-1.444-3.451c-0.515,1.103-1.004,2.253-1.467,3.451
		c-0.463,1.198-0.922,2.437-1.378,3.716H22.809L22.809,104.99z M38.185,108.806v1.853h-9.197V95.375h2.14v13.431H38.185
		L38.185,108.806z M49.524,103.138h2.139v7.145c-0.176,0.06-0.429,0.125-0.761,0.199c-0.331,0.073-0.713,0.146-1.146,0.22
		c-0.434,0.074-0.908,0.137-1.422,0.188c-0.516,0.052-1.036,0.077-1.565,0.077c-1.075,0-2.051-0.177-2.933-0.529
		c-0.883-0.354-1.639-0.868-2.272-1.544c-0.632-0.676-1.121-1.507-1.466-2.491c-0.345-0.986-0.519-2.118-0.519-3.397
		c0-1.278,0.195-2.415,0.585-3.406c0.389-0.993,0.915-1.827,1.577-2.503c0.661-0.676,1.437-1.191,2.327-1.544
		c0.89-0.354,1.841-0.529,2.855-0.529c0.691,0,1.305,0.044,1.842,0.132c0.536,0.089,0.995,0.19,1.377,0.31
		c0.384,0.116,0.696,0.234,0.938,0.352c0.243,0.119,0.409,0.207,0.496,0.266l-0.684,1.785c-0.426-0.278-0.992-0.51-1.698-0.693
		c-0.706-0.185-1.425-0.276-2.161-0.276c-0.779,0-1.489,0.141-2.128,0.419c-0.64,0.279-1.184,0.685-1.632,1.214
		c-0.449,0.528-0.797,1.172-1.048,1.929c-0.249,0.758-0.374,1.607-0.374,2.547c0,0.912,0.105,1.742,0.319,2.493
		c0.213,0.749,0.537,1.392,0.971,1.929s0.97,0.952,1.609,1.247c0.64,0.294,1.393,0.44,2.261,0.44c0.617,0,1.143-0.033,1.577-0.101
		c0.434-0.065,0.746-0.128,0.937-0.187V103.138L49.524,103.138z M54.158,103.005c0-1.309,0.196-2.462,0.585-3.462
		c0.389-0.999,0.918-1.833,1.587-2.502c0.669-0.67,1.448-1.174,2.338-1.511c0.89-0.339,1.834-0.508,2.833-0.508
		c0.985,0,1.916,0.169,2.79,0.508c0.875,0.337,1.643,0.841,2.305,1.511c0.661,0.669,1.187,1.503,1.577,2.502
		c0.389,1,0.584,2.153,0.584,3.462s-0.195,2.463-0.584,3.463c-0.391,0.999-0.917,1.834-1.577,2.503
		c-0.662,0.669-1.43,1.173-2.305,1.511s-1.805,0.507-2.79,0.507c-1,0-1.944-0.169-2.833-0.507s-1.669-0.842-2.338-1.511
		s-1.198-1.504-1.587-2.503C54.354,105.468,54.158,104.313,54.158,103.005L54.158,103.005z M56.408,103.005
		c0,0.927,0.118,1.769,0.353,2.526c0.235,0.756,0.569,1.4,1.003,1.929c0.434,0.529,0.963,0.937,1.588,1.224
		c0.624,0.287,1.327,0.431,2.106,0.431s1.477-0.144,2.095-0.431c0.617-0.287,1.143-0.694,1.577-1.224
		c0.434-0.528,0.768-1.173,1.003-1.929c0.235-0.758,0.354-1.6,0.354-2.526c0-0.926-0.118-1.768-0.354-2.524
		c-0.235-0.757-0.569-1.4-1.003-1.93c-0.434-0.529-0.959-0.938-1.577-1.224c-0.618-0.286-1.315-0.431-2.095-0.431
		s-1.482,0.145-2.106,0.431c-0.625,0.286-1.155,0.694-1.588,1.224c-0.434,0.529-0.768,1.173-1.003,1.93
		C56.526,101.237,56.408,102.079,56.408,103.005L56.408,103.005z M79.169,104.263c0.235,0.294,0.534,0.68,0.895,1.157
		c0.359,0.479,0.73,1.007,1.113,1.588c0.382,0.581,0.761,1.188,1.136,1.819c0.375,0.632,0.695,1.243,0.958,1.831h-2.337
		c-0.295-0.56-0.614-1.125-0.959-1.699c-0.346-0.572-0.696-1.12-1.048-1.643c-0.353-0.521-0.703-1.011-1.048-1.467
		c-0.345-0.455-0.657-0.853-0.936-1.189c-0.192,0.014-0.387,0.021-0.585,0.021c-0.198,0-0.4,0-0.606,0h-1.919v5.977h-2.139V95.596
		c0.604-0.147,1.276-0.246,2.019-0.298s1.422-0.077,2.04-0.077c2.146,0,3.781,0.404,4.906,1.213s1.687,2.014,1.687,3.617
		c0,1.014-0.268,1.881-0.805,2.602C81.004,103.373,80.214,103.909,79.169,104.263L79.169,104.263z M75.929,97.096
		c-0.912,0-1.61,0.021-2.096,0.065v5.757h1.522c0.735,0,1.396-0.037,1.985-0.111c0.588-0.074,1.084-0.213,1.489-0.419
		c0.404-0.205,0.716-0.496,0.937-0.871s0.331-0.871,0.331-1.489c0-0.572-0.11-1.051-0.331-1.433
		c-0.22-0.383-0.518-0.684-0.893-0.903c-0.375-0.222-0.816-0.376-1.323-0.464C77.042,97.139,76.501,97.096,75.929,97.096
		L75.929,97.096z M85.326,95.375h2.139v15.283h-2.139V95.375L85.326,95.375z M101.23,95.375v1.853h-4.808v13.431h-2.139V97.228
		h-4.808v-1.853H101.23L101.23,95.375z M112.855,95.375h2.14v15.283h-2.14v-7.058h-7.476v7.058h-2.14V95.375h2.14v6.373h7.476
		V95.375L112.855,95.375z M125.407,108.54c-0.146-0.352-0.34-0.801-0.584-1.345c-0.242-0.544-0.504-1.132-0.783-1.765
		c-0.277-0.632-0.576-1.282-0.893-1.951s-0.613-1.301-0.893-1.896s-0.541-1.128-0.783-1.599s-0.438-0.831-0.584-1.081
		c-0.162,1.735-0.295,3.613-0.398,5.635c-0.102,2.021-0.189,4.062-0.264,6.12h-2.096c0.061-1.324,0.125-2.657,0.199-4.004
		c0.074-1.345,0.158-2.668,0.254-3.969s0.197-2.569,0.309-3.805c0.109-1.234,0.232-2.403,0.363-3.506h1.875
		c0.398,0.647,0.824,1.412,1.279,2.293c0.455,0.883,0.91,1.806,1.367,2.769s0.896,1.926,1.322,2.889
		c0.428,0.963,0.816,1.841,1.17,2.635c0.352-0.794,0.742-1.672,1.168-2.635c0.428-0.963,0.867-1.926,1.324-2.889
		c0.455-0.963,0.91-1.886,1.367-2.769c0.455-0.881,0.881-1.646,1.279-2.293h1.873c0.502,4.925,0.875,10.02,1.125,15.283h-2.094
		c-0.074-2.059-0.162-4.099-0.266-6.12s-0.234-3.899-0.396-5.635c-0.146,0.25-0.342,0.61-0.584,1.081s-0.504,1.003-0.783,1.599
		c-0.281,0.596-0.578,1.228-0.893,1.896c-0.316,0.669-0.615,1.319-0.895,1.951c-0.279,0.633-0.539,1.221-0.783,1.765
		c-0.242,0.544-0.438,0.993-0.584,1.345H125.407L125.407,108.54z M141.069,109.136c2.234,0,3.352-0.765,3.352-2.293
		c0-0.471-0.1-0.871-0.297-1.201c-0.199-0.332-0.467-0.618-0.805-0.861c-0.34-0.242-0.725-0.452-1.158-0.628
		c-0.434-0.177-0.893-0.354-1.379-0.53c-0.559-0.19-1.088-0.407-1.588-0.649c-0.5-0.243-0.934-0.53-1.301-0.86
		c-0.367-0.331-0.658-0.725-0.871-1.18c-0.213-0.456-0.318-1.007-0.318-1.654c0-1.338,0.455-2.382,1.367-3.131
		c0.91-0.751,2.168-1.125,3.77-1.125c0.928,0,1.768,0.099,2.525,0.298c0.756,0.198,1.312,0.415,1.664,0.65l-0.682,1.742
		c-0.309-0.191-0.77-0.379-1.379-0.562c-0.611-0.184-1.32-0.275-2.129-0.275c-0.41,0-0.793,0.044-1.146,0.132
		c-0.354,0.089-0.662,0.221-0.926,0.397c-0.266,0.177-0.475,0.4-0.629,0.673c-0.154,0.271-0.23,0.591-0.23,0.959
		c0,0.411,0.08,0.756,0.24,1.036c0.162,0.279,0.391,0.526,0.686,0.739c0.293,0.212,0.635,0.408,1.025,0.584
		c0.389,0.176,0.82,0.353,1.289,0.529c0.662,0.265,1.27,0.529,1.82,0.795c0.551,0.264,1.029,0.58,1.434,0.947
		s0.717,0.805,0.936,1.312c0.223,0.507,0.332,1.121,0.332,1.842c0,1.337-0.488,2.366-1.467,3.087c-0.979,0.72-2.355,1.08-4.135,1.08
		c-0.604,0-1.158-0.04-1.666-0.12c-0.506-0.082-0.957-0.178-1.355-0.288c-0.396-0.109-0.738-0.228-1.025-0.353
		s-0.512-0.23-0.672-0.319l0.639-1.765c0.338,0.191,0.854,0.404,1.543,0.64C139.224,109.019,140.069,109.136,141.069,109.136
		L141.069,109.136z M164.317,110.658c-0.25-0.661-0.486-1.312-0.707-1.952s-0.447-1.29-0.684-1.952h-6.924l-1.391,3.904h-2.225
		c0.586-1.617,1.139-3.114,1.652-4.488c0.514-1.375,1.018-2.68,1.512-3.915c0.492-1.234,0.98-2.414,1.467-3.539
		c0.484-1.125,0.992-2.238,1.521-3.341h1.963c0.527,1.103,1.035,2.216,1.521,3.341c0.484,1.125,0.973,2.305,1.465,3.539
		c0.494,1.235,0.996,2.54,1.512,3.915c0.514,1.374,1.064,2.871,1.654,4.488H164.317L164.317,110.658z M162.31,104.99
		c-0.469-1.279-0.936-2.518-1.4-3.716c-0.463-1.198-0.943-2.349-1.443-3.451c-0.516,1.103-1.004,2.253-1.467,3.451
		s-0.924,2.437-1.379,3.716H162.31L162.31,104.99z M178.966,110.658c-0.324-0.545-0.697-1.155-1.115-1.831
		c-0.42-0.676-0.871-1.378-1.355-2.105c-0.486-0.729-0.99-1.468-1.512-2.217s-1.039-1.474-1.555-2.173
		c-0.514-0.697-1.014-1.354-1.5-1.973c-0.484-0.617-0.932-1.161-1.344-1.632v11.931h-2.096V95.375h1.697
		c0.691,0.735,1.432,1.592,2.217,2.569c0.787,0.978,1.566,1.985,2.338,3.021s1.5,2.054,2.184,3.054
		c0.684,0.999,1.262,1.889,1.73,2.668V95.375h2.096v15.283H178.966L178.966,110.658z M196.854,103.005
		c0,1.323-0.207,2.475-0.617,3.452c-0.412,0.977-0.994,1.786-1.742,2.425c-0.75,0.64-1.648,1.118-2.691,1.434
		c-1.045,0.317-2.191,0.475-3.439,0.475c-0.619,0-1.297-0.025-2.041-0.077c-0.742-0.052-1.414-0.15-2.018-0.297v-14.82
		c0.604-0.147,1.275-0.246,2.018-0.298c0.744-0.052,1.422-0.077,2.041-0.077c1.248,0,2.395,0.158,3.439,0.475
		c1.043,0.315,1.941,0.793,2.691,1.434c0.748,0.639,1.33,1.447,1.742,2.425C196.647,100.532,196.854,101.682,196.854,103.005
		L196.854,103.005z M188.54,108.915c2.029,0,3.543-0.519,4.543-1.555s1.5-2.488,1.5-4.355c0-1.866-0.5-3.318-1.5-4.355
		c-1-1.036-2.514-1.554-4.543-1.554c-0.604,0-1.07,0.007-1.4,0.021c-0.332,0.015-0.562,0.03-0.695,0.044v11.688
		c0.133,0.016,0.363,0.03,0.695,0.045C187.47,108.908,187.937,108.915,188.54,108.915L188.54,108.915z"/>
	<path d="M35.263,71.562c1.379,0,2.695-0.029,3.949-0.087c1.253-0.058,2.256-0.145,3.008-0.262v-9.849
		c-0.564-0.116-1.411-0.233-2.539-0.349s-2.162-0.174-3.102-0.174c-1.316,0-2.554,0.073-3.713,0.218
		c-1.16,0.146-2.178,0.421-3.055,0.829c-0.877,0.406-1.567,0.958-2.068,1.656s-0.752,1.569-0.752,2.615
		c0,2.034,0.736,3.442,2.209,4.228C30.672,71.17,32.693,71.562,35.263,71.562L35.263,71.562z M34.135,33.558
		c4.136,0,7.583,0.436,10.341,1.308c2.757,0.871,4.966,2.121,6.628,3.748c1.661,1.627,2.836,3.603,3.525,5.927
		c0.689,2.325,1.034,4.91,1.034,7.757v27.021c-2.006,0.407-4.794,0.887-8.367,1.438c-3.572,0.552-7.896,0.828-12.973,0.828
		c-3.196,0-6.095-0.262-8.696-0.784c-2.601-0.523-4.841-1.381-6.721-2.571c-1.881-1.191-3.322-2.746-4.325-4.663
		c-1.002-1.919-1.504-4.271-1.504-7.061c0-2.673,0.58-4.939,1.739-6.799c1.16-1.859,2.71-3.341,4.654-4.445
		c1.942-1.104,4.167-1.903,6.675-2.397c2.506-0.494,5.107-0.74,7.802-0.74c1.817,0,3.431,0.072,4.841,0.217
		c1.411,0.146,2.555,0.334,3.432,0.567v-1.221c0-2.208-0.721-3.98-2.163-5.317c-1.441-1.337-3.949-2.005-7.521-2.005
		c-2.382,0-4.732,0.16-7.05,0.479c-2.319,0.32-4.325,0.77-6.017,1.352l-1.787-10.46c0.815-0.232,1.833-0.479,3.055-0.741
		c1.223-0.262,2.554-0.494,3.996-0.697c1.441-0.204,2.961-0.377,4.559-0.523C30.892,33.631,32.505,33.558,34.135,33.558
		L34.135,33.558z M61.187,57.703c0-3.312,0.58-6.436,1.739-9.37c1.16-2.935,2.835-5.491,5.029-7.671
		c2.193-2.179,4.857-3.908,7.991-5.186c3.134-1.279,6.706-1.918,10.717-1.918c2.632,0,5.045,0.218,7.238,0.654
		c2.194,0.436,4.325,1.061,6.393,1.875L97.38,46.459c-1.316-0.465-2.757-0.872-4.324-1.221s-3.321-0.523-5.265-0.523
		c-4.136,0-7.223,1.192-9.26,3.574c-2.037,2.383-3.055,5.521-3.055,9.414c0,4.126,0.956,7.322,2.867,9.588s5.25,3.399,10.012,3.399
		c1.693,0,3.51-0.146,5.453-0.437c1.943-0.29,3.729-0.755,5.359-1.394l1.974,10.634c-1.63,0.64-3.667,1.191-6.111,1.655
		c-2.444,0.465-5.139,0.697-8.085,0.697c-4.512,0-8.397-0.624-11.656-1.874c-3.259-1.249-5.938-2.948-8.038-5.098
		c-2.1-2.15-3.635-4.693-4.606-7.628C61.672,64.313,61.187,61.131,61.187,57.703L61.187,57.703z"/>
	<polygon fill-rule="evenodd" clip-rule="evenodd" fill="#2B3E4F" points="185.628,45.675 173.329,45.675 173.329,9.019 
		185.628,9.019 185.628,45.675 	"/>
	<polygon fill-rule="evenodd" clip-rule="evenodd" fill="#2B3E4F" points="145.108,65.667 132.837,65.667 132.837,5 145.108,5 
		145.108,65.667 	"/>
	<polygon fill-rule="evenodd" clip-rule="evenodd" fill="#8893A3" points="124.798,57.561 112.5,57.561 112.5,17.407 
		124.798,17.407 124.798,57.561 	"/>
	<polygon fill-rule="evenodd" clip-rule="evenodd" fill="#2B3E4F" points="165.417,57.561 153.122,57.561 153.122,17.407 
		165.417,17.407 165.417,57.561 	"/>
</g>
</svg>
